<?xml version="1.0" standalone="no"?>
<!DOCTYPE svg PUBLIC "-//W3C//DTD SVG 20010904//EN"
 "http://www.w3.org/TR/2001/REC-SVG-20010904/DTD/svg10.dtd">
<svg version="1.0" xmlns="http://www.w3.org/2000/svg"
 width="512.000000pt" height="512.000000pt" viewBox="0 0 512.000000 512.000000"
 preserveAspectRatio="xMidYMid meet">

<g transform="translate(0.000000,512.000000) scale(0.100000,-0.100000)"
fill="#000000" stroke="none">
<path d="M2175 5104 c-142 -31 -285 -125 -354 -232 -30 -47 -33 -49 -106 -65
-42 -10 -88 -17 -104 -17 -54 0 -204 -31 -253 -52 -26 -11 -60 -34 -73 -50
-51 -60 -20 -108 70 -108 127 0 559 -66 612 -94 76 -39 130 -133 142 -247 4
-38 12 -74 19 -81 7 -7 63 -15 132 -19 217 -14 304 -44 391 -136 177 -187 129
-388 -172 -726 -208 -234 -231 -261 -290 -352 -151 -230 -237 -556 -210 -796
17 -153 61 -293 122 -395 57 -93 83 -83 116 42 29 108 112 282 184 386 52 73
181 229 187 224 1 -2 -11 -35 -27 -75 -41 -98 -117 -333 -141 -433 -126 -534
-69 -979 171 -1337 207 -311 555 -485 1060 -532 159 -14 370 -9 392 10 36 29
20 48 -90 107 -216 115 -341 215 -419 335 -87 134 -117 249 -117 459 0 169 8
230 73 565 57 292 75 413 91 625 14 188 6 575 -16 779 -41 376 -128 769 -226
1018 -76 193 -102 287 -134 468 -43 246 -101 372 -235 506 -71 71 -101 94
-180 132 -174 86 -452 127 -615 91z m300 -249 c50 -49 15 -135 -55 -135 -41 0
-80 39 -80 80 0 41 39 80 80 80 19 0 40 -9 55 -25z m332 -3843 c7 -5 22 -42
32 -84 25 -97 59 -164 110 -217 43 -45 49 -59 29 -79 -24 -24 -56 -13 -98 36
-50 56 -80 113 -109 206 -26 83 -27 122 -3 135 21 13 24 13 39 3z"/>
<path d="M1975 4054 c-332 -381 -536 -861 -620 -1464 -26 -180 -31 -651 -11
-870 46 -483 145 -929 280 -1253 35 -85 44 -131 28 -141 -5 -3 -56 -10 -114
-16 -187 -19 -310 -63 -396 -144 -57 -54 -91 -119 -75 -144 9 -16 74 -17 793
-17 735 0 783 1 794 17 17 27 -2 47 -67 73 -150 61 -351 212 -463 347 -287
344 -424 823 -424 1479 0 192 -7 222 -48 217 l-27 -3 1 -265 c3 -485 68 -823
220 -1140 118 -246 296 -459 493 -588 l95 -62 -634 0 -633 0 22 24 c32 34 127
83 197 101 32 9 106 20 164 26 58 6 117 17 132 25 60 31 72 86 39 177 -11 28
-42 114 -71 190 -104 282 -197 746 -231 1154 -15 184 -6 657 15 808 85 602
277 1043 630 1451 l36 41 -29 27 -28 27 -68 -77z"/>
</g>
</svg>
